<?xml version="1.0" encoding="utf-8"?>
<!-- Generator: Adobe Illustrator 17.0.0, SVG Export Plug-In . SVG Version: 6.00 Build 0)  -->
<!DOCTYPE svg PUBLIC "-//W3C//DTD SVG 1.1//EN" "http://www.w3.org/Graphics/SVG/1.1/DTD/svg11.dtd">
<svg version="1.1" id="Layer_1" xmlns="http://www.w3.org/2000/svg" xmlns:xlink="http://www.w3.org/1999/xlink" x="0px" y="0px"
	 width="23px" height="22px" viewBox="0 0 23 22" enable-background="new 0 0 23 22" xml:space="preserve">
<polygon fill="#E2574C" points="22,6 22,5 21,5 21,4 20,4 20,3 19,3 19,2 18,2 18,1 17,1 17,0 16,0 4,0 2,0 2,1 1,1 1,2 0,2 0,6 
	0,19 0,20 1,20 1,21 2,21 2,22 4,22 11,22 16,22 21,22 21,21 22,21 22,20 23,20 23,8 23,6 "/>
<g>
	<rect x="6" y="9" fill="#FFFFFF" width="1" height="5"/>
	<rect x="10" y="9" fill="#FFFFFF" width="1" height="5"/>
	<rect x="15" y="9" fill="#FFFFFF" width="1" height="5"/>
	<rect x="15" y="9" fill="#FFFFFF" width="3" height="1"/>
	<rect x="15" y="11" fill="#FFFFFF" width="3" height="1"/>
	<rect x="10" y="9" fill="#FFFFFF" width="3" height="1"/>
	<rect x="10" y="13" fill="#FFFFFF" width="3" height="1"/>
	<rect x="6" y="11" fill="#FFFFFF" width="3" height="1"/>
	<rect x="6" y="9" fill="#FFFFFF" width="3" height="1"/>
	<rect x="8" y="9" fill="#FFFFFF" width="1" height="3"/>
	<rect x="13" y="10" fill="#FFFFFF" width="1" height="3"/>
</g>
<rect x="1" fill="#F4B9B8" width="1" height="1"/>
<rect y="1" fill="#F4B9B8" width="1" height="1"/>
<rect y="20" fill="#F4B9B8" width="1" height="1"/>
<rect x="1" y="21" fill="#F4B9B8" width="1" height="1"/>
<rect x="21" y="21" fill="#F4B9B8" width="1" height="1"/>
<rect x="22" y="20" fill="#F4B9B8" width="1" height="1"/>
<rect x="13" y="13" fill="#F4B9B8" width="1" height="1"/>
<rect x="13" y="9" fill="#F4B9B8" width="1" height="1"/>
<polygon fill="#B53629" points="22,5 22,4 21,4 21,3 20,3 20,2 19,2 19,1 18,1 18,0 17,0 16,0 15,0 15,5 15,6 16,6 16,7 17,7 17,8 
	18,8 19,8 20,8 21,8 22,8 23,8 23,6 23,5 "/>
<g>
	<rect x="17" y="7" fill="#721712" width="6" height="1"/>
	<rect x="16" y="6" fill="#721712" width="1" height="1"/>
	<rect x="15" y="5" fill="#721712" width="1" height="1"/>
</g>
</svg>
